<?xml version="1.0" encoding="UTF-8" standalone="no"?>
<svg
   xmlns:dc="http://purl.org/dc/elements/1.1/"
   xmlns:cc="http://creativecommons.org/ns#"
   xmlns:rdf="http://www.w3.org/1999/02/22-rdf-syntax-ns#"
   xmlns:svg="http://www.w3.org/2000/svg"
   xmlns="http://www.w3.org/2000/svg"
   xmlns:sodipodi="http://sodipodi.sourceforge.net/DTD/sodipodi-0.dtd"
   xmlns:inkscape="http://www.inkscape.org/namespaces/inkscape"
   version="1.1"
   id="svg2"
   xml:space="preserve"
   width="1122.52"
   height="793.70135"
   viewBox="0 0 1122.52 793.70135"
   sodipodi:docname="гэх_лого_все.ai"><metadata
     id="metadata8"><rdf:RDF><cc:Work
         rdf:about=""><dc:format>image/svg+xml</dc:format><dc:type
           rdf:resource="http://purl.org/dc/dcmitype/StillImage" /></cc:Work></rdf:RDF></metadata><defs
     id="defs6"><clipPath
       clipPathUnits="userSpaceOnUse"
       id="clipPath18"><path
         d="M 0,595.276 H 841.89 V 0 H 0 Z"
         id="path16" /></clipPath></defs><sodipodi:namedview
     pagecolor="#ffffff"
     bordercolor="#666666"
     borderopacity="1"
     objecttolerance="10"
     gridtolerance="10"
     guidetolerance="10"
     inkscape:pageopacity="0"
     inkscape:pageshadow="2"
     inkscape:window-width="640"
     inkscape:window-height="480"
     id="namedview4" /><g
     id="g10"
     inkscape:groupmode="layer"
     inkscape:label="гэх_лого_все"
     transform="matrix(1.3333333,0,0,-1.3333333,0,793.70133)"><g
       id="g12"><g
         id="g14"
         clip-path="url(#clipPath18)"><g
           id="g20"
           transform="translate(448.7916,151.2521)"><path
             d="m 0,0 c -0.405,0.143 -0.828,0.238 -1.273,0.294 -0.192,0.024 -0.382,0.04 -0.566,0.04 h -0.565 -1.513 v -9.338 h 0.144 0.143 0.048 0.144 c 1.193,0 2.069,0.127 2.634,0.374 0.566,0.247 0.948,0.518 1.139,0.819 0.119,0.176 0.198,0.359 0.23,0.55 0.033,0.183 0.048,0.326 0.048,0.438 V -0.78 C 0.613,-0.406 0.406,-0.151 0,0"
             style="fill:#0071b9;fill-opacity:1;fill-rule:nonzero;stroke:none"
             id="path22" /></g><g
           id="g24"
           transform="translate(448.5084,139.5196)"><path
             d="M 0,0 C -0.597,0.263 -1.242,0.422 -1.935,0.478 -2.062,0.493 -2.182,0.51 -2.309,0.51 h -0.374 -0.239 -0.23 C -3.225,0.51 -3.304,0.501 -3.392,0.493 -3.487,0.485 -3.566,0.478 -3.63,0.478 v -9.299 h 1.504 c 0.82,0 1.529,0.103 2.126,0.335 0.597,0.222 0.892,0.533 0.892,0.931 v 6.169 C 0.892,-0.732 0.597,-0.263 0,0"
             style="fill:#0071b9;fill-opacity:1;fill-rule:nonzero;stroke:none"
             id="path26" /></g><g
           id="g28"
           transform="translate(480.0845,140.2276)"><path
             d="M 0,0 C -0.343,0.238 -1.051,0.357 -2.118,0.357 H -3.909 V -9.53 h 1.696 c 1.193,0 1.942,0.135 2.261,0.406 0.31,0.287 0.501,0.581 0.565,0.899 v 0.192 0.167 6.647 0.215 0.216 C 0.549,-0.494 0.342,-0.231 0,0"
             style="fill:#0071b9;fill-opacity:1;fill-rule:nonzero;stroke:none"
             id="path30" /></g><g
           id="g32"
           transform="translate(352.6915,140.5851)"><path
             d="M 0,0 C -0.183,-0.184 -0.295,-0.366 -0.334,-0.55 -0.358,-0.74 -0.375,-0.947 -0.375,-1.187 V -1.282 -1.426 -8.94 c 0,-0.263 0.16,-0.478 0.47,-0.629 0.311,-0.167 0.629,-0.28 0.94,-0.359 0.127,0 0.238,-0.008 0.334,-0.023 0.096,-0.009 0.199,-0.017 0.327,-0.017 0.127,0 0.239,0.008 0.334,0.017 0.095,0.015 0.199,0.023 0.326,0.023 0.446,0.056 0.852,0.159 1.227,0.334 0.381,0.168 0.564,0.391 0.564,0.654 V 1.425 C 2.89,1.162 1.95,0.907 1.321,0.677 0.692,0.437 0.254,0.207 0,0"
             style="fill:#0071b9;fill-opacity:1;fill-rule:nonzero;stroke:none"
             id="path34" /></g><g
           id="g36"
           transform="translate(417.5894,151.8038)"><path
             d="m 0,0 c -0.343,0.151 -0.701,0.238 -1.083,0.294 -0.127,0 -0.239,0.008 -0.326,0.024 -0.096,0.008 -0.207,0.016 -0.335,0.016 -0.119,0 -0.238,-0.008 -0.326,-0.016 C -2.166,0.302 -2.277,0.294 -2.404,0.294 -2.779,0.238 -3.145,0.151 -3.487,0 -3.83,-0.151 -4.004,-0.335 -4.004,-0.573 v -20.174 c 0,-0.247 0.174,-0.43 0.517,-0.581 0.342,-0.144 0.708,-0.239 1.083,-0.295 0.127,0 0.238,-0.008 0.334,-0.023 0.088,-0.016 0.207,-0.016 0.326,-0.016 0.128,0 0.239,0 0.335,0.016 0.087,0.015 0.199,0.023 0.326,0.023 0.382,0.056 0.74,0.151 1.083,0.295 0.342,0.151 0.517,0.334 0.517,0.581 V -0.573 C 0.517,-0.335 0.342,-0.151 0,0"
             style="fill:#0071b9;fill-opacity:1;fill-rule:nonzero;stroke:none"
             id="path38" /></g><g
           id="g40"
           transform="translate(209.7613,152.6583)"><path
             d="M 0,0 C -0.406,0.167 -0.836,0.271 -1.273,0.326 -1.465,0.358 -1.656,0.374 -1.839,0.374 H -2.404 -3.917 V -9.815 h 0.136 0.143 0.048 0.143 c 1.194,0 2.078,0.134 2.643,0.405 0.565,0.279 0.948,0.573 1.138,0.891 0.12,0.2 0.2,0.399 0.231,0.598 0.032,0.199 0.048,0.366 0.048,0.478 v 6.607 C 0.613,-0.437 0.406,-0.159 0,0"
             style="fill:#0071b9;fill-opacity:1;fill-rule:nonzero;stroke:none"
             id="path42" /></g><g
           id="g44"
           transform="translate(178.3096,153.3976)"><path
             d="m 0,0 c -0.47,0.183 -1.051,0.278 -1.744,0.278 -0.572,0 -1.058,-0.088 -1.464,-0.255 -0.414,-0.182 -0.613,-0.421 -0.613,-0.74 v -22.099 c 0,-0.255 0.199,-0.487 0.613,-0.669 0.406,-0.192 0.892,-0.279 1.464,-0.279 0.63,0 1.195,0.095 1.696,0.302 0.51,0.199 0.756,0.414 0.756,0.646 V -0.717 C 0.708,-0.43 0.478,-0.184 0,0"
             style="fill:#0071b9;fill-opacity:1;fill-rule:nonzero;stroke:none"
             id="path46" /></g><g
           id="g48"
           transform="translate(641.3541,150.8165)"><path
             d="m 0,0 c -0.47,0.167 -1.043,0.255 -1.728,0.255 -0.565,0 -1.05,-0.08 -1.457,-0.239 -0.405,-0.16 -0.612,-0.39 -0.612,-0.677 v -20.5 c 0,-0.238 0.207,-0.445 0.612,-0.612 0.407,-0.184 0.892,-0.272 1.457,-0.272 0.622,0 1.187,0.096 1.68,0.287 0.502,0.183 0.749,0.382 0.749,0.597 v 20.5 C 0.701,-0.398 0.47,-0.176 0,0"
             style="fill:#0071b9;fill-opacity:1;fill-rule:nonzero;stroke:none"
             id="path50" /></g><g
           id="g52"
           transform="translate(672.6041,149.7901)"><path
             d="m 0,0 c -0.374,0.183 -0.908,0.278 -1.593,0.278 -0.565,0 -1.034,-0.071 -1.401,-0.215 -0.382,-0.151 -0.66,-0.302 -0.844,-0.461 0,-0.056 -0.016,-0.095 -0.048,-0.135 -0.031,-0.04 -0.047,-0.088 -0.047,-0.144 v -19.417 c 0,-0.27 0.215,-0.477 0.653,-0.636 0.437,-0.167 0.907,-0.263 1.409,-0.288 h 0.136 0.142 c 0.685,0 1.219,0.088 1.593,0.272 0.374,0.167 0.565,0.382 0.565,0.652 V -0.677 C 0.565,-0.414 0.374,-0.184 0,0"
             style="fill:#0071b9;fill-opacity:1;fill-rule:nonzero;stroke:none"
             id="path54" /></g><g
           id="g56"
           transform="translate(209.4781,139.8614)"><path
             d="m 0,0 c -0.597,0.287 -1.242,0.462 -1.935,0.518 -0.127,0.024 -0.254,0.04 -0.382,0.04 H -2.691 -2.93 -3.161 C -3.224,0.558 -3.304,0.55 -3.399,0.534 -3.495,0.525 -3.575,0.518 -3.638,0.518 V -9.625 h 1.513 c 0.819,0 1.528,0.12 2.125,0.367 0.597,0.238 0.899,0.581 0.899,1.011 v 6.743 C 0.899,-0.796 0.597,-0.286 0,0"
             style="fill:#0071b9;fill-opacity:1;fill-rule:nonzero;stroke:none"
             id="path58" /></g><g
           id="g60"
           transform="translate(148.1334,153.42)"><path
             d="m 0,0 c -0.375,0.144 -0.939,0.207 -1.696,0.207 -0.501,0 -0.899,-0.039 -1.178,-0.143 -0.287,-0.103 -0.494,-0.215 -0.621,-0.327 -0.064,-0.087 -0.111,-0.174 -0.143,-0.255 -0.024,-0.086 -0.04,-0.15 -0.04,-0.174 v -9.721 h 4.53 v 9.721 0.111 c 0,0.04 -0.032,0.088 -0.096,0.144 C 0.637,-0.286 0.382,-0.151 0,0"
             style="fill:#0071b9;fill-opacity:1;fill-rule:nonzero;stroke:none"
             id="path62" /></g><g
           id="g64"
           transform="translate(746.9976,126.4503)"><path
             d="m 0,0 h -9.37 v 12.093 h -4.498 V 0 h -9.37 v 26.9 h 9.37 V 14.976 H -9.37 V 26.9 H 0 Z m -31.104,0 h -9.37 V 14.617 L -47.225,0 h -9.362 v 26.9 h 9.362 V 13.893 l 6.751,13.007 h 9.37 z M -64.461,23.501 V 3.527 c 0,-1.313 -0.518,-2.237 -1.552,-2.778 -1.027,-0.558 -2.166,-0.908 -3.416,-1.067 -0.684,-0.112 -1.361,-0.167 -2.013,-0.175 -0.662,-0.016 -1.235,-0.025 -1.736,-0.025 l -6.091,-0.039 c -0.437,0.032 -0.883,0.048 -1.353,0.064 -0.47,0.008 -0.923,0.023 -1.361,0.056 -1.441,0.135 -2.746,0.461 -3.933,0.979 -1.187,0.525 -1.783,1.504 -1.783,2.937 v 25.874 c 0,0.262 0.048,0.613 0.143,1.05 0.096,0.447 0.359,0.909 0.796,1.386 0.621,0.717 1.823,1.369 3.607,1.958 1.775,0.581 4.513,0.884 8.192,0.884 h 8.995 V 31.55 h -7.769 -0.796 c -0.28,0 -0.581,-0.031 -0.892,-0.087 -0.749,-0.048 -1.426,-0.232 -2.015,-0.534 -0.596,-0.311 -0.891,-0.852 -0.891,-1.624 v -4.243 c 0.684,0.454 1.48,0.86 2.389,1.226 0.907,0.358 1.854,0.645 2.857,0.852 0.502,0.111 1.004,0.191 1.497,0.239 0.502,0.056 0.972,0.087 1.409,0.087 2.062,0 3.463,-0.271 4.211,-0.796 0.757,-0.541 1.227,-1.131 1.409,-1.768 0.065,-0.238 0.096,-0.485 0.096,-0.724 z M -95.564,3.646 V 3.01 c 0,-0.215 -0.033,-0.43 -0.096,-0.645 -0.192,-0.749 -0.733,-1.418 -1.64,-1.999 -0.908,-0.589 -2.643,-0.884 -5.199,-0.884 -1.314,0 -2.46,0.113 -3.423,0.343 -0.972,0.223 -1.8,0.486 -2.484,0.78 -0.191,0.08 -0.374,0.167 -0.565,0.255 -0.183,0.096 -0.342,0.183 -0.469,0.271 v -9.689 h -9.363 V 26.9 h 9.363 v -1.074 c 0.445,0.286 0.955,0.541 1.551,0.74 0.59,0.192 1.202,0.367 1.824,0.494 0.692,0.135 1.345,0.239 1.966,0.31 0.629,0.056 1.155,0.096 1.6,0.096 1.808,0 3.415,-0.279 4.816,-0.82 1.41,-0.549 2.119,-1.704 2.119,-3.463 z m -31.113,-6.559 c 0,-0.272 -0.015,-0.566 -0.048,-0.9 -0.031,-0.334 -0.079,-0.676 -0.142,-1.027 -0.247,-0.939 -0.964,-1.791 -2.15,-2.563 -1.186,-0.773 -3.376,-1.155 -6.56,-1.155 h -4.777 c -0.438,0.024 -0.875,0.048 -1.313,0.056 -0.438,0.016 -0.876,0.048 -1.313,0.096 -1.561,0.127 -3.01,0.501 -4.356,1.106 -1.345,0.597 -1.981,1.703 -1.926,3.304 v 0.159 0.159 0.159 0.16 l 8.717,-0.04 v -1.966 c 0,-0.184 0.207,-0.351 0.613,-0.494 0.407,-0.152 0.86,-0.239 1.354,-0.263 0.063,-0.024 0.159,-0.039 0.286,-0.039 h 0.279 c 0.501,0 0.955,0.087 1.353,0.263 0.414,0.167 0.613,0.366 0.613,0.581 v 6.122 c -1.122,-0.478 -2.308,-0.821 -3.558,-1.02 -1.25,-0.207 -2.627,-0.303 -4.124,-0.303 -2.125,0 -3.607,0.263 -4.451,0.781 -0.843,0.525 -1.361,1.098 -1.544,1.744 -0.063,0.182 -0.111,0.374 -0.143,0.556 -0.032,0.192 -0.048,0.359 -0.048,0.526 V 26.9 h 9.37 V 3.288 c 0,-0.294 0.128,-0.51 0.374,-0.644 0.255,-0.136 0.534,-0.207 0.845,-0.24 0.19,-0.055 0.374,-0.079 0.564,-0.079 h 0.47 0.47 c 0.183,0 0.366,0.024 0.557,0.079 0.311,0.033 0.597,0.104 0.844,0.24 0.255,0.134 0.374,0.35 0.374,0.644 V 26.9 h 9.37 z m -28.484,26.939 h -7.778 V 0 h -9.371 v 24.026 h -7.769 V 26.9 h 24.918 z m -65.05,-22.632 -4.331,11.79 -3.392,-11.79 h -9.807 l 5.087,13.971 -5.087,12.618 h 9.991 l 3.208,-11.312 3.112,11.312 h 9.705 l -4.521,-12.618 6.122,-13.971 z m -23.47,0 h -9.426 v 26.59 h 9.426 z m -13.191,3.478 c 0,-1.13 -0.51,-1.934 -1.513,-2.403 -1.003,-0.479 -2.133,-0.781 -3.391,-0.916 -0.629,-0.072 -1.258,-0.119 -1.887,-0.136 -0.629,-0.016 -1.162,-0.023 -1.6,-0.023 h -0.143 -0.135 -14.713 v 26.589 h 9.426 V 16.989 h 5.287 c 0.501,0 1.026,-0.008 1.6,-0.023 0.565,-0.017 1.13,-0.048 1.695,-0.104 1.322,-0.128 2.54,-0.438 3.679,-0.948 1.13,-0.493 1.695,-1.385 1.695,-2.65 z m -31.295,6.791 V 11.647 4.872 c 0,-0.175 -0.031,-0.397 -0.096,-0.652 -0.063,-0.247 -0.19,-0.502 -0.374,-0.765 -0.382,-0.533 -1.21,-1.003 -2.5,-1.425 -1.289,-0.422 -3.383,-0.636 -6.264,-0.636 h -14.14 v 26.589 h 14.227 c 2.834,0 5.047,-0.31 6.647,-0.931 1.601,-0.621 2.404,-1.457 2.404,-2.508 v -6.488 c 0,-0.875 -0.581,-1.521 -1.743,-1.943 -1.162,-0.422 -2.436,-0.692 -3.821,-0.828 -0.438,-0.056 -0.876,-0.087 -1.314,-0.103 -0.437,-0.016 -0.851,-0.024 -1.234,-0.024 v -0.071 h 0.287 0.286 0.24 0.23 c 2.197,0 3.798,-0.191 4.809,-0.581 1.002,-0.383 1.664,-0.805 1.974,-1.282 0.192,-0.286 0.303,-0.574 0.334,-0.844 0.032,-0.278 0.048,-0.502 0.048,-0.653 z m -31.295,-6.751 c 0,-1.496 -0.644,-2.508 -1.934,-3.025 -1.291,-0.509 -2.715,-0.82 -4.291,-0.931 -0.438,-0.024 -0.876,-0.04 -1.314,-0.056 -0.438,-0.016 -0.884,-0.024 -1.321,-0.024 l -5.748,-0.04 c -0.383,0.032 -0.757,0.04 -1.131,0.04 -0.382,0 -0.788,0.016 -1.226,0.04 -1.576,0.088 -3.033,0.382 -4.386,0.899 -1.346,0.51 -2.022,1.545 -2.022,3.097 v 19.275 c 0,0.23 0.023,0.525 0.087,0.867 0.064,0.342 0.223,0.709 0.47,1.106 0.382,0.581 1.186,1.123 2.412,1.624 1.218,0.502 3.153,0.757 5.796,0.757 h 5.843 c 2.572,0 4.458,-0.255 5.653,-0.757 1.193,-0.501 2.013,-1.043 2.451,-1.624 0.319,-0.397 0.502,-0.764 0.565,-1.106 0.064,-0.342 0.096,-0.637 0.096,-0.867 z m -31.295,13.216 c 0,-0.184 -0.016,-0.383 -0.048,-0.613 -0.031,-0.223 -0.143,-0.446 -0.326,-0.693 -0.318,-0.366 -0.931,-0.724 -1.839,-1.067 -0.915,-0.334 -2.341,-0.565 -4.291,-0.668 v -0.279 c 2.07,0 3.567,-0.183 4.482,-0.557 0.908,-0.366 1.489,-0.788 1.736,-1.258 0.127,-0.239 0.207,-0.477 0.238,-0.701 0.032,-0.215 0.048,-0.43 0.048,-0.604 V 4.801 c 0,-1.402 -0.549,-2.357 -1.648,-2.874 -1.098,-0.51 -2.308,-0.836 -3.63,-0.971 -0.565,-0.024 -1.114,-0.04 -1.648,-0.056 -0.541,-0.016 -1.027,-0.024 -1.465,-0.024 l -5.939,-0.04 c -3.08,0.032 -5.23,0.303 -6.456,0.797 -1.226,0.501 -1.99,1.058 -2.309,1.663 -0.127,0.263 -0.199,0.517 -0.231,0.772 -0.04,0.247 -0.056,0.478 -0.056,0.693 v 6.051 h 9.427 V 4.761 c 0,-0.056 0.015,-0.127 0.055,-0.223 0.032,-0.088 0.08,-0.175 0.136,-0.255 0.127,-0.151 0.366,-0.294 0.708,-0.414 0.351,-0.119 0.9,-0.175 1.648,-0.175 h 0.144 0.143 c 0.374,0.024 0.756,0.104 1.13,0.231 0.374,0.136 0.565,0.414 0.565,0.836 v 6.886 c 0,0.104 -0.016,0.215 -0.047,0.351 -0.032,0.127 -0.08,0.263 -0.144,0.398 -0.247,0.239 -0.661,0.461 -1.218,0.676 -0.573,0.207 -1.512,0.311 -2.834,0.311 h -3.2 v 2.651 h 3.2 c 1.513,0 2.548,0.127 3.113,0.39 0.565,0.27 0.907,0.573 1.035,0.916 0.064,0.103 0.095,0.222 0.095,0.358 v 0.358 0.016 0.016 6.687 c 0,0.247 -0.111,0.422 -0.334,0.557 -0.215,0.128 -0.454,0.224 -0.701,0.279 -0.191,0.024 -0.358,0.048 -0.517,0.064 -0.16,0.008 -0.303,0.015 -0.43,0.015 -0.812,0 -1.425,-0.079 -1.839,-0.238 -0.406,-0.159 -0.645,-0.318 -0.708,-0.47 V 24.919 24.854 19.68 h -9.427 v 4.944 c 0,1.417 0.645,2.397 1.943,2.905 1.282,0.51 2.715,0.828 4.283,0.924 0.502,0.032 0.995,0.048 1.465,0.064 0.469,0.016 0.924,0.024 1.361,0.024 h 6.035 c 0.438,0 0.915,-0.008 1.417,-0.024 0.501,-0.016 0.971,-0.048 1.409,-0.104 1.385,-0.127 2.643,-0.445 3.773,-0.963 1.131,-0.517 1.696,-1.425 1.696,-2.747 z M -380.73,1.394 h -9.426 v 1.305 c -1.696,-0.82 -3.208,-1.321 -4.53,-1.528 -1.314,-0.192 -2.508,-0.295 -3.574,-0.295 -2.142,0 -3.591,0.263 -4.339,0.78 -0.756,0.51 -1.226,1.083 -1.417,1.72 -0.064,0.263 -0.088,0.51 -0.088,0.756 v 0.669 7.754 c 0,0.684 0.454,1.282 1.361,1.799 0.908,0.509 1.903,0.94 2.97,1.29 0.692,0.231 1.385,0.43 2.07,0.565 0.692,0.151 1.234,0.255 1.608,0.343 0.127,0.023 0.247,0.048 0.374,0.079 0.127,0.024 0.255,0.056 0.382,0.08 1.258,0.263 2.428,0.604 3.535,1.026 1.098,0.422 1.648,1.035 1.648,1.856 v 5.222 c 0,0.239 -0.175,0.422 -0.518,0.557 -0.35,0.128 -0.708,0.223 -1.082,0.278 -0.128,0 -0.239,0.009 -0.335,0.025 -0.095,0.008 -0.199,0.015 -0.326,0.015 -0.127,0 -0.239,-0.007 -0.327,-0.015 -0.103,-0.016 -0.207,-0.025 -0.334,-0.025 -0.374,-0.055 -0.74,-0.15 -1.083,-0.278 -0.35,-0.135 -0.525,-0.318 -0.525,-0.557 v -4.904 h -9.418 v 5.143 c 0,1.083 0.549,1.863 1.648,2.333 1.099,0.477 2.309,0.796 3.623,0.955 0.628,0.071 1.273,0.127 1.934,0.151 0.661,0.031 1.242,0.048 1.743,0.048 h 6.322 c 2.197,0 4.099,-0.303 5.7,-0.908 1.6,-0.612 2.404,-1.456 2.404,-2.539 z m -27.338,23.74 h -10.557 V 1.394 h -9.426 v 26.589 h 19.983 z m -54.128,-5.207 h -9.45 v 6.305 c 0,0.287 -0.214,0.509 -0.661,0.668 -0.437,0.16 -0.907,0.255 -1.408,0.28 h -0.144 -0.143 c -0.565,0 -1.075,-0.088 -1.513,-0.255 -0.438,-0.176 -0.66,-0.406 -0.66,-0.693 v -22.1 c 0,-0.263 0.159,-0.47 0.469,-0.629 0.319,-0.159 0.629,-0.271 0.948,-0.326 0.127,0 0.246,-0.008 0.382,-0.024 0.119,-0.008 0.247,-0.016 0.374,-0.016 h 0.143 0.144 c 0.501,0.024 0.971,0.12 1.408,0.279 0.447,0.159 0.661,0.397 0.661,0.716 v 6.815 h 9.45 V 4.562 c 0,-2.046 -0.788,-3.288 -2.364,-3.734 -1.577,-0.445 -3.336,-0.684 -5.287,-0.708 h -0.565 -0.573 l -6.042,-0.048 c -0.311,0.032 -0.613,0.048 -0.9,0.048 h -0.891 c -1.704,0.048 -3.265,0.334 -4.674,0.836 -1.425,0.509 -2.133,1.688 -2.133,3.559 v 21.112 c 0,2.022 0.748,3.28 2.221,3.798 1.481,0.525 3.136,0.811 4.96,0.867 h 0.66 0.661 6.138 1.043 c 0.382,0 0.725,-0.016 1.043,-0.04 1.696,-0.064 3.24,-0.357 4.625,-0.892 1.385,-0.533 2.078,-1.727 2.078,-3.606 z m -31.359,-19.25 h -9.441 v 15.755 l -6.807,-15.755 h -9.442 v 29.01 h 9.442 V 15.66 l 6.807,14.027 h 9.441 z m -33.619,11.201 V 11.854 4.475 c 0,-0.2 -0.032,-0.439 -0.096,-0.709 -0.063,-0.279 -0.19,-0.557 -0.382,-0.844 -0.374,-0.573 -1.21,-1.099 -2.499,-1.552 -1.29,-0.462 -3.384,-0.693 -6.282,-0.693 h -14.171 v 29.01 h 14.267 c 2.834,0 5.055,-0.334 6.655,-1.011 1.608,-0.677 2.412,-1.6 2.412,-2.746 v -7.077 c 0,-0.957 -0.589,-1.657 -1.751,-2.111 -1.163,-0.47 -2.436,-0.771 -3.821,-0.915 -0.446,-0.056 -0.884,-0.088 -1.322,-0.103 -0.446,-0.016 -0.852,-0.025 -1.226,-0.025 v -0.087 h 0.279 0.286 0.231 0.239 c 2.205,0 3.805,-0.207 4.816,-0.621 1.003,-0.422 1.664,-0.891 1.983,-1.409 0.191,-0.318 0.302,-0.621 0.326,-0.924 0.04,-0.303 0.056,-0.549 0.056,-0.716 z M -558.533,4.602 V 3.909 c 0,-0.222 -0.031,-0.454 -0.095,-0.692 -0.191,-0.796 -0.741,-1.521 -1.648,-2.15 -0.916,-0.636 -2.667,-0.947 -5.246,-0.947 -1.322,0 -2.469,0.111 -3.448,0.366 -0.979,0.239 -1.807,0.518 -2.499,0.836 -0.192,0.087 -0.383,0.175 -0.566,0.279 -0.191,0.103 -0.35,0.199 -0.477,0.278 V -8.558 h -9.442 v 38.245 h 9.442 v -1.163 c 0.446,0.311 0.963,0.574 1.56,0.797 0.597,0.215 1.21,0.39 1.839,0.541 0.693,0.144 1.353,0.247 1.982,0.319 0.629,0.08 1.171,0.111 1.609,0.111 1.822,0 3.447,-0.294 4.864,-0.892 1.417,-0.588 2.125,-1.831 2.125,-3.725 z m -30.037,9.195 h -13.979 V 4.045 c 0,-0.056 0.015,-0.12 0.047,-0.176 0.032,-0.056 0.048,-0.111 0.048,-0.167 0.127,-0.119 0.334,-0.23 0.613,-0.35 0.287,-0.12 0.709,-0.175 1.274,-0.175 0.828,0 1.457,0.095 1.895,0.287 0.438,0.182 0.66,0.374 0.66,0.581 v 6.902 h 9.442 v -6.6 c 0,-1.417 -0.581,-2.405 -1.743,-2.977 -1.163,-0.573 -2.444,-0.939 -3.83,-1.083 -0.565,-0.088 -1.146,-0.136 -1.743,-0.151 -0.597,-0.008 -1.155,-0.016 -1.656,-0.016 l -5.852,-0.048 c -0.445,0.032 -0.915,0.056 -1.417,0.064 -0.509,0.015 -1.043,0.048 -1.607,0.103 -1.386,0.152 -2.66,0.501 -3.822,1.059 -1.17,0.565 -1.751,1.56 -1.751,3.001 v 21.679 c 0,1.432 0.756,2.515 2.268,3.232 1.513,0.724 3.623,1.082 6.329,1.082 h 5.852 c 2.961,0 5.199,-0.414 6.711,-1.233 1.513,-0.821 2.261,-1.816 2.261,-3.002 z M -618.599,31.82 V 31.709 24.72 h -11.241 v 8.335 c 0,0.262 -0.191,0.485 -0.573,0.669 -0.375,0.19 -0.78,0.318 -1.218,0.406 -0.128,0.031 -0.287,0.056 -0.478,0.071 -0.183,0.016 -0.342,0.024 -0.47,0.024 -0.629,0 -1.194,-0.112 -1.703,-0.327 -0.502,-0.222 -0.78,-0.454 -0.844,-0.716 V 33.118 33.055 4.562 4.475 4.347 c 0.119,-0.231 0.406,-0.446 0.844,-0.629 0.446,-0.191 1.011,-0.279 1.703,-0.279 0.693,0 1.322,0.104 1.887,0.327 0.566,0.214 0.852,0.477 0.852,0.796 v 8.805 h 11.241 V 5.47 5.406 5.342 c 0,-0.286 -0.016,-0.629 -0.048,-1.019 -0.032,-0.39 -0.143,-0.788 -0.334,-1.186 -0.374,-0.748 -1.258,-1.441 -2.643,-2.07 -1.385,-0.636 -3.75,-0.947 -7.085,-0.947 l -7.651,-0.048 c -0.311,0.032 -0.645,0.048 -0.987,0.048 -0.351,0 -0.709,0.016 -1.091,0.039 -1.951,0.056 -3.758,0.391 -5.43,1.012 -1.663,0.621 -2.499,2.061 -2.499,4.339 v 26.168 0.604 c 0,0.199 0.024,0.406 0.095,0.646 0.064,1.003 0.693,1.942 1.887,2.801 1.194,0.869 3.869,1.291 8.025,1.291 h 7.651 c 3.526,0 5.97,-0.319 7.324,-0.964 1.353,-0.653 2.189,-1.362 2.499,-2.133 0.128,-0.351 0.207,-0.686 0.239,-1.02 0.032,-0.326 0.048,-0.636 0.048,-0.924 z m -42.25,-47.328 H 12.944 v 59.485 h -673.793 z"
             style="fill:#0071b9;fill-opacity:1;fill-rule:nonzero;stroke:none"
             id="path66" /></g><g
           id="g68"
           transform="translate(514.9605,381.0265)"><path
             d="m 0,0 c 0,7.507 9.29,13.43 17.101,13.43 h 2.443 c 6.839,0 14.895,-6.44 14.895,-13.056 0,0 -0.247,-24.329 -0.247,-32.712 L 8.55,-32.37 v -38.467 h 25.642 v -31.152 c 0,-14.227 -4.131,-23.206 -16.662,-23.206 -12.372,0 -18.143,9.393 -18.143,20.157 v 21.98 h -48.849 v -17.706 c 0,-55.042 41.764,-62.295 56.786,-62.295 h 15.882 c 26.232,0 60.448,9.928 60.448,64.732 v 98.94 c 0,15.922 -14.202,50.075 -61.06,50.075 h -9.769 c -50.513,0 -62.9,-37.918 -62.9,-55.576 V -19.544 H 0 Z"
             style="fill:#0071b9;fill-opacity:1;fill-rule:nonzero;stroke:none"
             id="path70" /></g><g
           id="g72"
           transform="translate(660.7789,222.9015)"><path
             d="m 0,0 25.762,61.842 c 0,0 17.593,-51.151 20.77,-61.89 l 52.407,-0.048 c 0,0 -42.423,96.887 -45.075,103.868 4.984,13.121 43.348,101.377 43.348,101.377 H 48.976 c -1.186,-5.079 -23.549,-59.74 -23.549,-59.74 0,0 -21.972,53.06 -24.695,59.74 h -46.405 c 0.008,-0.135 42.743,-99.115 42.743,-101.989 0,-1.816 -44.574,-103.208 -44.574,-103.208 z"
             style="fill:#0071b9;fill-opacity:1;fill-rule:nonzero;stroke:none"
             id="path74" /></g><g
           id="g76"
           transform="translate(380.6212,388.964)"><path
             d="M 0,0 H 65.95 V 39.089 H -49.462 V -166.108 H 0 Z"
             style="fill:#0071b9;fill-opacity:1;fill-rule:nonzero;stroke:none"
             id="path78" /></g><g
           id="g80"
           transform="translate(275.5914,404.0777)"><path
             d="M 0,0 C 0,0 13.208,-7.269 19.903,-11.249 L 66.188,45.259 27.752,63.044 Z"
             style="fill:#0071b9;fill-opacity:1;fill-rule:nonzero;stroke:none"
             id="path82" /></g><g
           id="g84"
           transform="translate(251.1568,410.0055)"><path
             d="M 0,0 C 0,0 14.775,-2.993 22.354,-4.8 L 49.693,62.933 7.698,68.45 Z"
             style="fill:#0071b9;fill-opacity:1;fill-rule:nonzero;stroke:none"
             id="path86" /></g><g
           id="g88"
           transform="translate(225.5435,408.1046)"><path
             d="M 0,0 C 0,0 15.007,1.48 22.777,1.99 L 28.986,74.762 -12.77,67.685 Z"
             style="fill:#0071b9;fill-opacity:1;fill-rule:nonzero;stroke:none"
             id="path90" /></g><g
           id="g92"
           transform="translate(201.2838,399.2765)"><path
             d="M 0,0 C 0,0 14.051,5.469 21.399,8.057 L 7.746,79.81 -30.555,61.738 Z"
             style="fill:#0071b9;fill-opacity:1;fill-rule:nonzero;stroke:none"
             id="path94" /></g><g
           id="g96"
           transform="translate(181.3419,383.2423)"><path
             d="M 0,0 C 0,0 11.615,9.609 17.777,14.377 L -17.737,78.202 -48.419,49 Z"
             style="fill:#0071b9;fill-opacity:1;fill-rule:nonzero;stroke:none"
             id="path98" /></g><g
           id="g100"
           transform="translate(167.6856,362.7179)"><path
             d="M 0,0 C 0,0 8.112,12.706 12.515,19.13 L -40.848,68.999 -61.101,31.804 Z"
             style="fill:#0071b9;fill-opacity:1;fill-rule:nonzero;stroke:none"
             id="path102" /></g><g
           id="g104"
           transform="translate(161.1129,338.5392)"><path
             d="m 0,0 c 0,0 4.084,14.513 6.433,21.941 l -65.536,32.25 -8.59,-41.469 z"
             style="fill:#0071b9;fill-opacity:1;fill-rule:nonzero;stroke:none"
             id="path106" /></g><g
           id="g108"
           transform="translate(160.9498,313.7931)"><path
             d="m 0,0 c 0,0 -0.326,15.078 -0.231,22.864 l -72.08,11.766 3.846,-42.169 z"
             style="fill:#0071b9;fill-opacity:1;fill-rule:nonzero;stroke:none"
             id="path110" /></g><g
           id="g112"
           transform="translate(169.1631,289.964)"><path
             d="M 0,0 C 0,0 -4.776,14.298 -6.998,21.766 L -79.332,11.623 -63.147,-27.514 Z"
             style="fill:#0071b9;fill-opacity:1;fill-rule:nonzero;stroke:none"
             id="path114" /></g><g
           id="g116"
           transform="translate(183.5767,269.1476)"><path
             d="M 0,0 C 0,0 -8.534,12.427 -12.73,18.987 L -79.467,-10.7 -53.116,-43.85 Z"
             style="fill:#0071b9;fill-opacity:1;fill-rule:nonzero;stroke:none"
             id="path118" /></g><g
           id="g120"
           transform="translate(202.9048,253.5245)"><path
             d="m 0,0 c 0,0 -11.862,9.299 -17.825,14.306 l -54.804,-48.284 35.061,-23.755 z"
             style="fill:#0071b9;fill-opacity:1;fill-rule:nonzero;stroke:none"
             id="path122" /></g><g
           id="g124"
           transform="translate(226.6168,245.1358)"><path
             d="M 0,0 C 0,0 -14.107,5.318 -21.304,8.312 L -59.103,-54.191 -18.542,-66.34 Z"
             style="fill:#0071b9;fill-opacity:1;fill-rule:nonzero;stroke:none"
             id="path126" /></g><g
           id="g128"
           transform="translate(250.5499,243.6905)"><path
             d="m 0,0 c 0,0 -15.062,0.677 -22.824,1.281 l -16.528,-71.139 42.337,1.034 z"
             style="fill:#0071b9;fill-opacity:1;fill-rule:nonzero;stroke:none"
             id="path130" /></g><g
           id="g132"
           transform="translate(274.3482,249.5753)"><path
             d="m 0,0 c 0,0 -14.593,-3.79 -22.196,-5.493 l 5.159,-72.861 40.156,13.471 z"
             style="fill:#0071b9;fill-opacity:1;fill-rule:nonzero;stroke:none"
             id="path134" /></g><g
           id="g136"
           transform="translate(295.7354,261.6378)"><path
             d="M 0,0 C 0,0 -12.977,-7.675 -19.799,-11.425 L 5.326,-80.001 40.18,-55.95 Z"
             style="fill:#0071b9;fill-opacity:1;fill-rule:nonzero;stroke:none"
             id="path138" /></g><g
           id="g140"
           transform="translate(275.5533,395.6812)"><path
             d="m 0,0 v -64.731 l -32.282,-18.327 -32.282,18.327 v 64.548 h -0.327 C -90.39,-12.372 -108,-38.404 -108,-68.545 c 0,-41.82 33.898,-75.717 75.718,-75.717 41.82,0 75.718,33.897 75.718,75.717 0,30.26 -17.753,56.38 -43.42,68.505 z m 9.02,-16.169 c 5.74,-4.53 10.731,-10.007 14.752,-16.217 6.958,-10.771 10.644,-23.27 10.644,-36.159 0,-36.772 -29.926,-66.698 -66.698,-66.698 -36.78,0 -66.698,29.926 -66.698,66.698 0,12.834 3.646,25.293 10.564,36.032 4.029,6.265 9.044,11.783 14.824,16.344 v -48.562 -5.255 l 4.57,-2.595 32.282,-18.318 4.458,-2.532 4.45,2.532 32.282,18.318 4.57,2.595 v 5.255 48.562"
             style="fill:#0071b9;fill-opacity:1;fill-rule:nonzero;stroke:none"
             id="path142" /></g></g></g></g></svg>
